<?xml version="1.0" standalone="no"?>
<!DOCTYPE svg PUBLIC "-//W3C//DTD SVG 20010904//EN"
 "http://www.w3.org/TR/2001/REC-SVG-20010904/DTD/svg10.dtd">
<svg version="1.0" xmlns="http://www.w3.org/2000/svg"
 width="550.000000pt" height="158.000000pt" viewBox="0 0 550.000000 158.000000"
 preserveAspectRatio="xMidYMid meet">
<metadata>
Created by potrace 1.16, written by Peter Selinger 2001-2019
</metadata>
<g transform="translate(0.000000,158.000000) scale(0.100000,-0.100000)"
fill="#000000" stroke="none">
<path d="M4297 1073 c-4 -3 -7 -138 -7 -300 l0 -293 35 0 c24 0 35 5 35 14 0
26 17 27 57 4 29 -18 53 -23 103 -22 132 1 210 81 210 215 0 165 -152 265
-299 199 -24 -11 -47 -20 -52 -20 -5 0 -9 37 -9 83 0 110 -6 127 -39 127 -15
0 -31 -3 -34 -7z m280 -250 c49 -23 73 -66 73 -131 0 -66 -20 -103 -70 -131
-48 -27 -92 -27 -141 1 -45 25 -69 70 -69 130 0 113 105 180 207 131z"/>
<path d="M1910 993 c-12 -27 -33 -70 -45 -98 -23 -51 -29 -65 -116 -260 -27
-60 -54 -117 -59 -126 -12 -22 -3 -29 37 -29 31 0 35 4 65 68 l33 67 148 3
147 3 32 -71 c31 -69 32 -70 70 -70 21 0 38 4 38 9 0 5 -16 44 -36 87 -20 44
-45 99 -56 124 -11 25 -32 70 -45 100 -14 30 -41 91 -60 135 -45 102 -48 105
-93 105 -35 0 -39 -3 -60 -47z m82 -90 c25 -31 91 -192 84 -208 -5 -13 -23
-15 -108 -13 -120 3 -119 1 -68 112 16 37 30 70 30 74 0 12 30 52 39 52 4 0
14 -8 23 -17z"/>
<path d="M2900 759 l0 -280 38 3 37 3 5 80 5 80 115 6 c91 4 124 10 157 27
137 71 130 274 -11 341 -40 18 -63 21 -196 21 l-150 0 0 -281z m327 185 c43
-32 59 -85 43 -135 -23 -68 -57 -84 -180 -84 l-105 0 -3 109 c-1 61 0 116 3
124 4 11 27 13 109 10 87 -2 109 -6 133 -24z"/>
<path d="M2352 902 c-9 -7 -12 -56 -10 -213 l3 -204 35 0 35 0 3 204 c3 211 1
221 -38 221 -8 0 -21 -4 -28 -8z"/>
<path d="M2583 903 c-10 -3 -13 -56 -13 -214 l0 -209 35 0 35 0 0 106 c0 58 5
125 11 150 14 56 57 94 105 94 28 0 35 4 40 25 15 60 -23 71 -100 30 -43 -23
-47 -23 -53 -7 -11 28 -31 37 -60 25z"/>
<path d="M3473 903 c-10 -3 -13 -56 -13 -214 l0 -209 35 0 35 0 0 119 c0 131
12 175 56 210 15 12 41 21 60 21 28 0 35 5 40 25 14 57 -21 71 -91 35 -46 -24
-65 -25 -65 -6 0 20 -30 31 -57 19z"/>
<path d="M3876 895 c-81 -29 -135 -110 -136 -203 0 -87 30 -142 105 -190 33
-21 53 -26 110 -26 139 -2 225 82 225 216 -1 157 -151 258 -304 203z m149 -71
c59 -28 91 -101 74 -168 -32 -128 -174 -157 -253 -53 -33 43 -36 125 -7 173
35 58 120 80 186 48z"/>
<path d="M4924 891 c-152 -69 -164 -297 -20 -386 43 -26 58 -30 125 -30 58 0
84 5 110 20 48 28 60 50 39 72 -17 16 -20 16 -59 -5 -48 -26 -117 -29 -159 -7
-40 21 -86 83 -72 97 7 7 65 10 166 9 l156 -2 0 68 c0 62 -3 72 -32 107 -40
48 -98 76 -163 76 -27 0 -68 -9 -91 -19z m150 -60 c31 -12 80 -76 72 -96 -4
-12 -28 -15 -131 -15 -145 0 -157 7 -108 67 45 57 97 70 167 44z"/>
<path d="M283 436 c-24 -21 -28 -32 -28 -78 0 -79 24 -107 93 -108 58 0 79 14
101 67 40 98 -86 188 -166 119z m131 -26 c6 -6 11 -33 11 -60 0 -58 -20 -79
-76 -80 -52 0 -84 36 -76 87 9 52 40 77 91 70 21 -3 44 -11 50 -17z"/>
</g>
</svg>
